<svg width="109" height="31" viewBox="0 0 109 31" fill="none" xmlns="http://www.w3.org/2000/svg">
<path d="M26.196 11.0938H19.9744C19.8608 10.2888 19.6288 9.57386 19.2784 8.94886C18.928 8.31439 18.4782 7.77462 17.929 7.32955C17.3797 6.88447 16.7453 6.54356 16.0256 6.30682C15.3153 6.07008 14.5436 5.9517 13.7102 5.9517C12.2045 5.9517 10.893 6.32576 9.77557 7.07386C8.65814 7.8125 7.79167 8.89205 7.17614 10.3125C6.56061 11.7235 6.25284 13.4375 6.25284 15.4545C6.25284 17.5284 6.56061 19.2708 7.17614 20.6818C7.80114 22.0928 8.67235 23.1581 9.78977 23.8778C10.9072 24.5975 12.1998 24.9574 13.6676 24.9574C14.4915 24.9574 15.2538 24.8485 15.9545 24.6307C16.6648 24.4129 17.2945 24.0956 17.8438 23.679C18.393 23.2528 18.8475 22.7367 19.2074 22.1307C19.5767 21.5246 19.8324 20.8333 19.9744 20.0568L26.196 20.0852C26.035 21.4205 25.6326 22.7083 24.9886 23.9489C24.3542 25.1799 23.4972 26.2831 22.4176 27.2585C21.3475 28.2244 20.0691 28.9915 18.5824 29.5597C17.1051 30.1184 15.4337 30.3977 13.5682 30.3977C10.9735 30.3977 8.65341 29.8106 6.60795 28.6364C4.57197 27.4621 2.96212 25.7623 1.77841 23.5369C0.604167 21.3116 0.0170455 18.6174 0.0170455 15.4545C0.0170455 12.2822 0.613636 9.58333 1.80682 7.35795C3 5.13258 4.61932 3.4375 6.66477 2.27273C8.71023 1.09848 11.0114 0.511363 13.5682 0.511363C15.2538 0.511363 16.8163 0.748105 18.2557 1.22159C19.7045 1.69508 20.9877 2.38636 22.1051 3.29545C23.2225 4.19507 24.1316 5.29829 24.8324 6.60511C25.5426 7.91193 25.9972 9.40814 26.196 11.0938ZM35.0739 30H28.483L38.5256 0.90909H46.4517L56.4801 30H49.8892L42.6023 7.55682H42.375L35.0739 30ZM34.6619 18.5653H50.2301V23.3665H34.6619V18.5653ZM59.9815 30V0.90909H71.4588C73.6558 0.90909 75.5308 1.30208 77.0838 2.08807C78.6463 2.86458 79.8348 3.9678 80.6491 5.39773C81.473 6.81818 81.8849 8.48958 81.8849 10.4119C81.8849 12.3437 81.4683 14.0057 80.6349 15.3977C79.8016 16.7803 78.5942 17.8409 77.0128 18.5795C75.4408 19.3182 73.5374 19.6875 71.3026 19.6875H63.6179V14.7443H70.3082C71.4825 14.7443 72.4579 14.5833 73.2344 14.2614C74.0109 13.9394 74.5885 13.4564 74.9673 12.8125C75.3556 12.1686 75.5497 11.3684 75.5497 10.4119C75.5497 9.44602 75.3556 8.63163 74.9673 7.96875C74.5885 7.30587 74.0062 6.80398 73.2202 6.46307C72.4437 6.11269 71.4635 5.9375 70.2798 5.9375H66.1321V30H59.9815ZM75.6918 16.7614L82.9219 30H76.1321L69.0582 16.7614H75.6918ZM102.013 9.27557C101.899 8.12973 101.411 7.23958 100.55 6.60511C99.688 5.97064 98.5185 5.65341 97.0412 5.65341C96.0374 5.65341 95.1899 5.79545 94.4986 6.07955C93.8073 6.35417 93.277 6.73769 92.9077 7.23011C92.5478 7.72254 92.3679 8.28125 92.3679 8.90625C92.349 9.42708 92.4579 9.88163 92.6946 10.2699C92.9408 10.6581 93.277 10.9943 93.7031 11.2784C94.1293 11.553 94.6217 11.7945 95.1804 12.0028C95.7391 12.2017 96.3357 12.3722 96.9702 12.5142L99.5838 13.1392C100.853 13.4233 102.018 13.8021 103.078 14.2756C104.139 14.7491 105.057 15.3314 105.834 16.0227C106.61 16.714 107.212 17.5284 107.638 18.4659C108.073 19.4034 108.296 20.4782 108.305 21.6903C108.296 23.4706 107.841 25.0142 106.942 26.321C106.052 27.6184 104.764 28.6269 103.078 29.3466C101.402 30.0568 99.3802 30.4119 97.0128 30.4119C94.6643 30.4119 92.6188 30.0521 90.8764 29.3324C89.1435 28.6127 87.7893 27.5473 86.8139 26.1364C85.848 24.7159 85.3414 22.9593 85.294 20.8665H91.2457C91.312 21.8419 91.5914 22.6562 92.0838 23.3097C92.5857 23.9536 93.2533 24.4413 94.0866 24.7727C94.9295 25.0947 95.8812 25.2557 96.9418 25.2557C97.9834 25.2557 98.8878 25.1042 99.6548 24.8011C100.431 24.4981 101.033 24.0767 101.459 23.5369C101.885 22.9972 102.098 22.3769 102.098 21.6761C102.098 21.0227 101.904 20.4735 101.516 20.0284C101.137 19.5833 100.578 19.2045 99.8395 18.892C99.1103 18.5795 98.2154 18.2955 97.1548 18.0398L93.9872 17.2443C91.5346 16.6477 89.598 15.715 88.1776 14.446C86.7571 13.1771 86.0516 11.4678 86.0611 9.31818C86.0516 7.55682 86.5204 6.01799 87.4673 4.7017C88.4238 3.38542 89.7353 2.35795 91.402 1.61932C93.0687 0.880681 94.9626 0.511363 97.0838 0.511363C99.2429 0.511363 101.127 0.880681 102.737 1.61932C104.357 2.35795 105.616 3.38542 106.516 4.7017C107.415 6.01799 107.879 7.54261 107.908 9.27557H102.013Z" fill="#FF2344"/>
</svg>
